# xmcd
#
# Track frame offsets:
#	150
#	18167
#	38827
#
# Disc length: 756 seconds
#
# Revision: 2
# Processed by: cddbd v1.4PL0 Copyright (c) Steve Scherf et al.
# Submitted via: CDmax 1.9
#
DISCID=1702f203
DTITLE=Joe's Project - PIANO
DYEAR=1994
DGENRE=Jpop
TTITLE0=PIANO
TTITLE1=PIANO STANDARD
TTITLE2=PIANO (Original Karaoke)
EXTD=
EXTT0=
EXTT1=
EXTT2=
PLAYORDER=
